<?xml version="1.0" standalone="no"?>
<!DOCTYPE svg PUBLIC "-//W3C//DTD SVG 1.1//EN" "http://www.w3.org/Graphics/SVG/1.1/DTD/svg11.dtd" >
<svg xmlns="http://www.w3.org/2000/svg">
<metadata>
Created by FontForge 20120731 at Wed Apr 12 13:18:57 2017
 By admin
</metadata>
<defs>
<font id="iconfont" horiz-adv-x="1024" >
  <font-face 
    font-family="iconfont"
    font-weight="500"
    font-stretch="normal"
    units-per-em="1024"
    panose-1="2 0 6 3 0 0 0 0 0 0"
    ascent="896"
    descent="-128"
    x-height="792"
    bbox="0 -128 1025 896"
    underline-thickness="0"
    underline-position="0"
    unicode-range="U+0078-E64A"
  />
<missing-glyph 
 />
    <glyph glyph-name=".notdef" 
 />
    <glyph glyph-name=".notdef" 
 />
    <glyph glyph-name=".null" horiz-adv-x="0" 
 />
    <glyph glyph-name="nonmarkingreturn" horiz-adv-x="341" 
 />
    <glyph glyph-name="x" unicode="x" horiz-adv-x="1001" 
d="M281 543q-27 -1 -53 -1h-83q-18 0 -36.5 -6t-32.5 -18.5t-23 -32t-9 -45.5v-76h912v41q0 16 -0.5 30t-0.5 18q0 13 -5 29t-17 29.5t-31.5 22.5t-49.5 9h-133v-97h-438v97zM955 310v-52q0 -23 0.5 -52t0.5 -58t-10.5 -47.5t-26 -30t-33 -16t-31.5 -4.5q-14 -1 -29.5 -0.5
t-29.5 0.5h-32l-45 128h-439l-44 -128h-29h-34q-20 0 -45 1q-25 0 -41 9.5t-25.5 23t-13.5 29.5t-4 30v167h911zM163 247q-12 0 -21 -8.5t-9 -21.5t9 -21.5t21 -8.5q13 0 22 8.5t9 21.5t-9 21.5t-22 8.5zM316 123q-8 -26 -14 -48q-5 -19 -10.5 -37t-7.5 -25t-3 -15t1 -14.5
t9.5 -10.5t21.5 -4h37h67h81h80h64h36q23 0 34 12t2 38q-5 13 -9.5 30.5t-9.5 34.5q-5 19 -11 39h-368zM336 498v228q0 11 2.5 23t10 21.5t20.5 15.5t34 6h188q31 0 51.5 -14.5t20.5 -52.5v-227h-327z" />
    <glyph glyph-name="xd_plane" unicode="&#xe616;" 
d="M3 893l16 -91l199 -238l-90 -504l89 -103l196 421l309 -252q11 -10 20 -18l-64 -157l75 -75l78 168l8 7l59 -53l22 24l-58 53l21 20l137 71l-70 69l-162 -81q-5 7 -10 12l-260 327l5 4l440 220l-93 77l-541 -104l-2 -2l-222 184z" />
    <glyph glyph-name="xd_rocket" unicode="&#xe617;" 
d="M886 702q0 24 -16.5 40.5t-40 16.5t-40 -16.5t-16.5 -40.5t16.5 -40.5t40 -16.5t39.5 17q17 16 17 40zM1017 873q0 -148 -44 -256q-45 -108 -149 -213q-48 -48 -115 -105l-12 -225q-1 -9 -9 -15l-225 -133q-4 -2 -10 -2q-7 0 -13 5l-38 38q-7 8 -5 19l50 164l-165 166
l-162 -50q-2 -1 -5 -1v0q-9 0 -14 6l-37 38q-10 11 -3 23l131 228q6 8 15 9l223 12q57 69 103 116q111 111 211 153t253 42q8 0 14 -5.5t6 -13.5zM171 40l206 152l25 -25l-395 -293l289 400l26 -26z" />
    <glyph glyph-name="xd_logo" unicode="&#xe618;" 
d="M324 741q-39 -75 -51 -162q29 134 15 135q-2 0 -5 -2q-34 -12 -60.5 -38.5t-38.5 -60.5q-6 -15 -9 -31q-11 -5 -20 -10q1 14 3 27q11 52 49 90t90 49q16 3 34 3h-7zM869 572q-10 5 -21 10q-4 27 -16 50q-7 21 -32.5 44.5t-58.5 35.5q-15 6 -31 9q-34 72 -88 127
q40 -50 63.5 -75.5t29.5 -29.5t12 -5q52 -11 90 -49t49 -90q2 -13 3 -27zM869 196q-1 -14 -3 -27q-11 -52 -49 -90t-90 -49q-16 -3 -34 -3q42 60 53 146q-24 -118 -10 -119q1 0 5 2q34 12 60.5 38.5t38.5 60.5q9 24 10 51q6 -17 19 -10zM940 546v54q0 88 -62.5 150
t-149.5 62h-55q-73 79 -161 79t-161 -79h-55q-87 0 -149.5 -62t-62.5 -150v-54q-79 -74 -79 -162t79 -161v-55q0 -87 62.5 -149.5t149.5 -62.5h55q73 -79 161 -79t161 79h55q87 0 149.5 62.5t62.5 149.5v55q79 73 79 161t-79 162zM132 271q16 -6 34 -7h1h3h3q23 0 46 9
t47 27q-24 -3 -50 1t-43 15q-11 6 -18 15q-18 22 -16 58q0 28 16 51q7 10 18 19q9 8 20 13.5t17 7.5l6 2h89v91h-89l-27 2q-8 -3 -14 -9l-2 -2q-9 -9 -17 -11h-1v0q-6 -1 -23 2v21v7q3 73 55.5 125.5t125.5 55.5h7h26q-16 -29 -20 -63l1 13q-1 -6 -2 -21v7q-1 -5 -2 -20
l2 -322q0 -4 -2 -10.5t-9.5 -24t-17.5 -32.5t-29 -31t-42 -24q-24 -8 -52 -8q-9 0 -18 1q-23 2 -44 8zM892 508q-11 4 -23 6q-7 1 -15 1h-3q-24 -1 -47 -10t-46 -26q23 3 49 -1t44 -15q11 -7 18 -16q18 -21 16 -57q0 -29 -16 -51q-7 -10 -18 -20q-9 -7 -20 -12.5t-17 -7.5
l-6 -2h-90v-92h90l27 -1q8 2 14 9l2 2q9 9 17 11h0.5h0.5q6 1 23 -2v-31v-8q-3 -73 -55.5 -125.5t-125.5 -55.5h-8h-27q17 29 21 63l-2 -12q2 9 3 21l-1 -7q2 6 2 19l-2 322q1 4 2.5 10.5t9 24t18 32.5t29.5 31t43 24v0q24 8 52 8q9 0 18 -1q23 -3 44 -9zM892 547
q-11 6 -23 11q-10 4 -19 6q-30 10 -60 10q-41 1 -74 -16q-102 -50 -115 -148v-343q-2 -9 -7 -22q-3 -10 -7 -18q-6 -13 -13 -23h-97q25 4 46 16q-16 0 -36 7q-21 6 -36 18q-21 17 -29 43q-3 12 -4 25q-1 25 6.5 44t19 28t23 14.5t20.5 6.5h8h90v92h-90q-45 -4 -86 -28
q-85 -48 -85 -154q0 -5 1 -11q4 -33 31 -60q10 -10 23 -18q27 -18 60 -23h-119h-7q-73 3 -125.5 55.5t-55.5 125.5v7v1v27q10 -6 23 -10q29 -12 62 -15l-11 1q7 -2 27 -2q41 0 74 16q101 50 115 148v343q1 9 6 22q3 10 8 18q5 13 12 23h58q-22 -11 -39 -29q-3 -3 1 -2
q3 0 16 3q62 18 81 5q13 -8 21 -18q15 -18 19 -44q1 -5 1 -11q1 -25 -6.5 -44t-19 -28t-23 -14.5t-20.5 -6.5h-8h-90v-92h90q5 1 11 1.5t24 5t33.5 11.5t35 21t33.5 32t24 46.5t10 62.5v2q0 30 -20 58q-20 26 -49 39q6 -3 9 -5v1l-12 6h75h8q73 -3 125.5 -55.5t55.5 -125.5
v-7v-29zM324 27q-14 0 -27 3q-52 11 -90 49t-49 90q-2 13 -3 27q9 -4 20 -10q3 -16 9 -31q12 -34 38.5 -60.5t60.5 -38.5q15 -6 31 -9q38 -81 99 -143z" />
    <glyph glyph-name="xd_manag_easy" unicode="&#xe619;" 
d="M505 628q-2 47 -16 79.5t-40 61.5l35 39l-20 23l-36 -36q-27 23 -63.5 38t-71.5 18v44h-22v-44q-47 -2 -77 -15.5t-61 -39.5l-37 35l-21 -20l35 -41q-26 -30 -40 -62.5t-16 -79.5h-50v-22h50q6 -75 56 -132l-36 -34l21 -19l37 35q30 -26 61 -40t78 -16v-61h22v61
q35 3 72 18t64 39l35 -36l20 20l-35 33q50 57 56 132h55v22h-55zM128 751l106 -109q-1 -1 -2 -5t-1.5 -6.5t-1.5 -2.5h-149q5 73 48 123zM129 492q-44 50 -49 114h150q1 0 1.5 -1.5t1.5 -4t2 -4.5zM271 427q-70 4 -120 48l107 106q1 -1 4.5 -2t6 -2l2.5 -1v-149zM271 675
l-2.5 -0.5t-5.5 -1.5t-5 -2l-105 106q51 43 118 48v-150zM293 825q66 -5 116 -48l-106 -106q-1 1 -3.5 1.5t-4.5 1t-2 1.5v150zM293 427v149q0 1 2.5 1.5t5.5 1.5t4 2l105 -105q-50 -44 -117 -49zM430 493l-106 104q1 1 1.5 3.5t1.5 4l1 1.5h150q-5 -63 -48 -113zM329 628
l-1 3.5t-2 7.5t-1 5l105 104q44 -50 48 -120h-149zM1024 159v134v12q0 17 -2 21.5t-12 4.5h-36q0 5 3.5 32t3.5 42v9h-625v-9q0 -65 7 -119.5t23 -101.5t25 -68.5t28 -61.5l9 -18t9 -18.5t7 -16t7 -18t4.5 -16t3.5 -18t1 -17.5v-59h23v40h333v-40h21v59q0 20 6 42.5t12.5 37
t20.5 43.5q4 9 15 33t16 35h83q12 0 13 3.5t1 32.5zM1004 144h-66q22 66 33 166h33v-166zM755 426h-29q0 10 13 33q16 28 16 41q0 18 -16 46q-2 2 -5.5 7.5t-4.5 7.5t-2 8t-1 13h29q0 -9 1.5 -13t4 -5.5t3.5 -2.5q21 -36 21 -59q0 -22 -21 -57q-8 -15 -9 -19zM666 426h-29
q0 10 13 33q16 28 16 41q0 18 -16 46q-2 2 -5 7.5t-4.5 7.5t-2.5 8t-1 13h29q1 -9 2 -13t3.5 -5.5t3.5 -2.5q21 -36 21 -59q0 -22 -21 -57q-8 -15 -9 -19zM578 426h-30q0 10 13 33q17 28 17 41q0 17 -17 46q-1 2 -4.5 7.5t-4.5 7.5t-2.5 8t-1.5 13h30q0 -9 1.5 -13t4 -5.5
t3.5 -2.5q20 -36 20 -59q0 -22 -20 -57q-9 -15 -9 -19z" />
    <glyph glyph-name="xd_tool_easy" unicode="&#xe61a;" 
d="M996 328h-36q3 35 3 73v14h-616v-14q0 -65 7 -119.5t21.5 -99.5t24 -69t27.5 -61q13 -28 19.5 -42.5t12.5 -36t6 -41.5v-59h29v44h322v-44h30v59q0 20 5.5 41.5t12 36t19.5 42.5q20 42 30 67h83q13 0 16 6t3 32v133q0 24 -3.5 31t-15.5 7zM987 148h-63q25 70 34 150h29
v-150zM743 422h-29q0 10 13 32q16 28 16 41.5t-16 40.5q-13 23 -13 33h29q0 -3 9 -18q20 -35 20 -56t-20 -56q-9 -14 -9 -17zM655 422h-29q0 10 13 32q16 28 16 41.5t-16 40.5q-13 23 -13 33h29q0 -3 9 -18q20 -35 20 -56t-20 -56q-9 -14 -9 -17zM567 422h-29q0 10 13 32
q16 28 16 41.5t-16 40.5q-13 23 -13 33h29q1 -3 9 -18q21 -35 21 -56t-21 -56q-8 -14 -9 -17zM464 495q12 -13 12 -31t-12.5 -31t-30 -13t-30.5 13l-91 92l-12 -12l-12 12l36 37l-60 62l-73 -74q9 -25 3 -51t-24 -44q-27 -27 -64 -27q-18 0 -36 7l-11 6l39 39v32h-30
l-39 -41l-6 12q-11 26 -5.5 53.5t24.5 47.5q27 26 64 26v0q16 0 31 -5l72 74l-103 104l-12 -12l-67 68l37 36l66 -67l-12 -12l103 -105l73 74q-9 25 -3 50.5t24 44.5q26 27 64 27q18 0 36 -8l11 -5l-40 -40v-31l31 1l39 39l5 -11q11 -26 6 -53.5t-25 -47.5q-26 -27 -63 -27
q-16 0 -30 6l-73 -74l60 -62l37 37l12 -12l-12 -12z" />
    <glyph glyph-name="xd_pig" unicode="&#xe61b;" 
d="M990 397h-17q-24 63 -80.5 116.5t-134.5 85.5q0 6 2 15q6 29 28 53l-0.5 -0.5l-0.5 -0.5q-34 7 -65 -7t-50 -42q-51 11 -106 11q-116 0 -213.5 -46t-153.5 -123q2 7 2 13v3q-1 8 -2 11l-1 3v1v0v1l-1 1l-1 4l-1 3l-2 4q-3 5 -5 10q-14 21 -34 27q-22 8 -44 -3
q-18 -8 -31 -26l-3 -4l-2 -2v0l-1 -2v0v-1l-4 -7q-2 -6 -4 -11q0 -1 -2 -10q-2 -14 1 -28h-0.5h-0.5q-2 1 -5 3t-3.5 2t-8.5 5q-11 8 -16 17q-3 7 -3 9q-1 1 -1.5 3t-0.5 3v7q0 5 -3 8t-8 3q-7 0 -9 -7v0l-1 -2q-2 -3 -2 -5q-4 -16 0 -29q6 -20 26 -34q1 -1 3 -2t3.5 -2
t2.5 -2q9 -5 11 -6q12 -6 22 -10q7 -3 12 -5q9 -13 21 -25q5 -6 12 -12v0h1l1 -1v-1l2 -1l3 -2l6 -4l1 -0.5t2 -0.5l4 -2l8 -4l6 -3q-6 -28 -6 -54q0 -118 123 -236v-112q0 -14 27.5 -24t64.5 -10t64.5 10t27.5 24v27q32 -14 124 -14q61 0 124 14v-27q0 -15 23 -24.5
t59 -9.5t59 9.5t23 24.5v111q77 51 111 156h17q14 0 24 28t10 65q0 24 -4.5 45.5t-12.5 34.5t-17 13zM125 431h-5q-1 -1 -3.5 1.5t-3.5 2.5l-1 4v0l-1 -4l-2 -2q-1 0 -1 -0.5t-1 -0.5q-10 21 -8 37q0 1 0.5 2.5t0.5 2.5q1 2 1 4l4 7v1l1 1l2 3q7 10 17 15q20 8 33 -11
q1 -3 2 -5q1 -1 2 -3v-4v-3v-1l2 -1q1 -3 1 -4q1 -9 -5 -19q-12 -19 -35 -23zM158 381l-0.5 0.5l-0.5 0.5l-4 2l-3 1l-1 0.5l-1 0.5l-6 4l-3 2l-1 1h-1q-1 1 -2.5 3t-2.5 2q24 5 43 21q-10 -19 -17 -38zM641 530q-133 34 -255 -29q-8 16 -16 31q134 69 279 32
q-1 -6 -4 -17.5t-4 -16.5zM837 331.5q-9 -3.5 -18.5 3t-14 18.5t-2 23t11.5 14.5t18.5 -3t14.5 -18.5t2 -23t-12 -14.5zM475 626q47 17 68 62t3.5 91.5t-62.5 67.5t-91.5 4t-67.5 -62t-4 -91.5t62 -67.5t92 -4zM430 727q-38 -1 -46 22q-10 27 19 45l-6 18l18 6l6 -16
q17 5 30 4l2 -24q-17 1 -29 -3q-16 -6 -13 -16q3 -8 29 -8q35 0 44 -24q11 -29 -21 -47l7 -19l-18 -7l-7 18q-20 -6 -35 -4l-2 24q18 -2 34 3q18 7 14 19q-4 9 -26 9v0z" />
    <glyph glyph-name="xd_idCard" unicode="&#xe61f;" 
d="M160 756h-67q-39 0 -66 -27.5t-27 -65.5v-558q0 -39 27 -66t66 -27h837q39 0 66 27t27 66v558q0 38 -27 65.5t-66 27.5h-770zM310 624q54 0 92 -38t38 -91.5t-38 -91.5t-92 -38t-91.5 38t-37.5 91.5t37.5 91.5t91.5 38zM512 120h-403v58q0 59 42 101.5t101 42.5h116
q59 0 101.5 -42.5t42.5 -101.5v-58zM915 415h-295v46h295v-46zM930 523h-387v47h387v-47z" />
    <glyph glyph-name="xd_reservedPhone" unicode="&#xe620;" 
d="M800 895h-489q-3 0 -7.5 -0.5t-17 -4t-21.5 -10.5t-16.5 -22t-7.5 -35l-1 -876q2 -1 0.5 -8t2 -18t9.5 -21.5t20.5 -18t34.5 -7.5h496q3 0 7.5 0.5t16 4t20.5 10t16.5 21t7.5 34.5v879v0q1 38 -26 59q-18 13 -45 13zM485 860h140v-35h-140v35zM432.5 860q7.5 0 12.5 -5
t5 -12.5t-5 -12.5t-12.5 -5t-12.5 5t-5 12.5t5 12.5t12.5 5zM555.5 -55q-14.5 0 -25 10t-10.5 24.5t10.5 25t25 10.5t24.5 -10.5t10 -25t-10 -24.5t-24.5 -10zM802 86h-494v704h494v-704v0zM802 86z" />
    <glyph glyph-name="xd_bankCarder" unicode="&#xe621;" 
d="M960 747h-896q-26 0 -45 -19t-19 -45v-599q0 -26 19 -45t45 -19h896q27 0 46 19t19 45v599q0 26 -19 45t-46 19zM982 84q0 -8 -6.5 -14.5t-15.5 -6.5h-896q-8 0 -14.5 6.5t-6.5 14.5v352h939v-352v0zM982 565h-939v118q0 9 6.5 15t14.5 6h896q9 0 15.5 -6t6.5 -15v-118z
M982 565zM105 362h43v-240h-43v240zM105 362zM191 362h43v-240h-43v240zM191 362zM276 362h43v-240h-43v240zM276 362z" />
    <glyph glyph-name="xd_police" unicode="&#xe622;" 
d="M926 645q-57 2 -90 31t-42 86l-1 4l-4 1l-275 119l-3 2l-3 -2l-3 -2l-272 -117l-4 -1v-4q-9 -57 -42 -86t-91 -31l-7 -1v-7q2 -297 135 -496q96 -145 281 -259l4 -1h3l4 1q186 114 282 259q133 199 136 496v7zM786 149q-94 -141 -275 -253q-181 112 -275 253
q-128 193 -132 481q58 4 92 35q36 31 47 90l268 116h1l268 -116q10 -59 46 -90q35 -31 93 -35q-4 -288 -133 -481zM746 739l-235 97l-235 -97q-9 -56 -48 -94.5t-92 -40.5q0 -82 12.5 -155.5t31.5 -130.5t49 -108.5t60.5 -89t70 -73.5t74 -60.5t77.5 -50.5l3 2v-1
q43 27 77 51.5t74 60t70 73t59.5 89t48.5 108t31 130t13 155.5q-53 2 -92.5 40.5t-48.5 94.5zM198 499v-58h-20v155h44q25 0 39 -12t14 -35q0 -22 -16 -36.5t-41 -13.5h-20zM198 578v-61h19q18 0 27.5 8t9.5 24q0 29 -35 29h-21zM293 517q0 37 20.5 59.5t55.5 22.5
q32 0 51.5 -22t19.5 -56q0 -38 -20 -60t-54 -22q-33 0 -53 21.5t-20 56.5zM314 518q0 -28 14.5 -44.5t37.5 -16.5q25 0 39 16t14 45q0 30 -14 46.5t-38 16.5q-23 0 -38 -17.5t-15 -45.5zM552 441h-82v155h20v-137h62v-18zM610 579h-15v-121h15v-17h-50v17h15v121h-15v17h50
v-17zM741 448q-17 -9 -43 -9q-33 0 -53 21t-20 56q0 37 22.5 60t56.5 23q22 0 37 -7v-21q-17 10 -37 10q-26 0 -42 -17.5t-16 -46.5q0 -28 15 -44t40 -16q23 0 40 10v-19zM855 441h-83v155h79v-18h-59v-49h55v-18h-55v-52h63v-18z" />
    <glyph glyph-name="xd_underLineBusiness" unicode="&#xe623;" 
d="M908 689h1q-13 0 -21.5 -10t-8.5 -23v-82q-61 85 -159 135.5t-204 50.5q-100 0 -192 -45t-154 -124t-77 -175q0 -4 2.5 -7.5t6.5 -3.5h42q8 0 9 8q21 121 126.5 203.5t234.5 82.5t234 -82.5t126 -203.5h0.5t0.5 -1q0 -12 9 -20t22 -8h2q13 0 22.5 7.5t9.5 19.5v245
q0 13 -10 23t-22 10zM925 242h-41q-8 0 -10 -8q-21 -121 -126 -203.5t-234 -82.5q-85 0 -163 37t-132 103t-68 146h-1.5t-1.5 1v7q0 12 -7.5 21.5t-20.5 9.5h-1q-13 0 -22.5 -9.5t-9.5 -21.5v-246q0 -12 10 -20t23 -8h-1q13 0 21 8t8 20v76q62 -84 159.5 -134.5t203.5 -50.5
q101 0 192.5 45t153.5 124t77 175q1 4 -1.5 7.5t-7.5 3.5zM725 427l-112 96q-2 2 -5 0.5t-3 -4.5v-63h-254q-12 0 -21 -9t-9 -21.5t9 -21.5t21 -9h254v-69q0 -3 3 -4.5t5 0.5l112 96q2 2 2 4.5t-2 4.5zM323 235l112 -96q2 -2 5 -0.5t3 5.5v58h254q12 0 21 9t9 21.5t-9 21.5
t-21 9h-254v73q0 3 -3 4.5t-5 -0.5l-112 -96q-2 -1 -2 -4t2 -5v0zM46 879h936v-48h-936v48z" />
    <glyph glyph-name="daohangtubiao_xd_productService" unicode="&#xe624;" 
d="M435 461v296q0 5 -2 10.5t-6.5 12t-8 11t-10 11.5t-9.5 10t-10.5 9.5l-7.5 6.5q-59 56 -139 62.5t-146 -39.5q-53 -37 -76.5 -104t-10.5 -131q8 -35 26 -69t51.5 -60t72.5 -26h276zM589 461h296q5 0 10.5 2t12 6t11 7.5t11.5 10.5l10 10t9.5 10t6.5 8q56 59 62.5 138.5
t-39.5 146.5q-37 53 -104 76.5t-131 9.5q-35 -7 -69 -25.5t-60 -52t-26 -72.5v-246v-29zM435 309v-297q0 -5 -2 -10.5t-6.5 -11.5t-8 -10.5t-10 -11.5t-9.5 -10t-10.5 -9.5t-7.5 -7.5q-59 -55 -139 -61.5t-146 39.5q-53 36 -76.5 103t-10.5 132q8 35 26 69t51.5 60t72.5 26
h276zM588 309v-297q0 -5 1.5 -10.5t6 -11.5t8 -10.5t10 -11.5t9.5 -10t10.5 -9.5t8.5 -7.5q58 -55 138 -61.5t146 39.5q54 36 77 103t10 132q-7 35 -25.5 69t-52 60t-72.5 26h-275z" />
    <glyph glyph-name="daohangtubiao_xd_personInfo" unicode="&#xe625;" 
d="M560 530q0 102 -66.5 175t-161 73t-161 -73t-66.5 -175q0 -74 36 -134.5t96 -90.5v-54h191v54q60 30 96 90.5t36 134.5zM656 -51q3 20 3 38q0 85 -43.5 156.5t-119 113t-164 41.5t-163.5 -41.5t-119 -113t-44 -156.5q0 -18 3 -38h647zM924 815h-400v-45h400
q23 0 39.5 -10.5t16.5 -23.5v-708q0 -13 -16.5 -23.5t-39.5 -10.5h-226v-45h226q42 0 71 23t29 56v708q0 33 -29 56t-71 23zM920 595q0 -7 -4.5 -11.5t-10.5 -4.5h-306q-6 0 -10.5 4.5t-4.5 11.5v46q0 7 4.5 11.5t10.5 4.5h306q6 0 10.5 -4.5t4.5 -11.5v-46zM920 434
q0 -7 -4.5 -11.5t-10.5 -4.5h-306q-6 0 -10.5 4.5t-4.5 11.5v46q0 7 4.5 12t10.5 5h306q6 0 10.5 -5t4.5 -12v-46zM920 273q0 -7 -3.5 -11.5t-8.5 -4.5h-237q-4 0 -7.5 4.5t-3.5 11.5v46q0 7 3.5 11.5t7.5 4.5h237q5 0 8.5 -4.5t3.5 -11.5v-46z" />
    <glyph glyph-name="daohangtubiao_xd_account" unicode="&#xe626;" 
d="M1024 698v114q0 35 -24.5 59.5t-59.5 24.5h-856q-35 0 -59.5 -24.5t-24.5 -59.5v-114h1024v0zM1024 592h-1024v-636q0 -35 24.5 -59.5t59.5 -24.5h856q35 0 59.5 24.5t24.5 59.5v636zM565 462h252q19 0 33 -13.5t14 -32.5t-14 -32.5t-33 -13.5h-252q-19 0 -32.5 13.5
t-13.5 32.5t13.5 32.5t32.5 13.5zM259.5 470q42.5 0 72.5 -30t30 -72.5t-30 -72.5t-72.5 -30t-72.5 30t-30 72.5t30 72.5t72.5 30zM428 5h-336v101q0 41 29 70.5t71 29.5h136q42 0 71 -29.5t29 -70.5v-101zM738 5h-173q-19 0 -32.5 13.5t-13.5 32.5t13.5 32.5t32.5 13.5h173
q19 0 33 -13.5t14 -32.5t-14 -32.5t-33 -13.5zM901 187h-343q-19 0 -32.5 13.5t-13.5 33t13.5 33t32.5 13.5h343q19 0 32.5 -13.5t13.5 -33t-13.5 -33t-32.5 -13.5z" />
    <glyph glyph-name="daohangtubiao_xd_businessCount" unicode="&#xe627;" 
d="M860 541q-29 89 -91 155q-105 111 -255 129t-277 -64l229 -350zM161 782q-30 -20 -56 -44q-66 -62 -101 -151l387 -154l-230 349v0zM544 166q0 103 72.5 175t174.5 72q39 0 77 -12q-5 43 -18 83l-396 -129l-388 154q-44 -113 -21.5 -232t105.5 -207q94 -101 229 -125.5
t253 32.5q-41 35 -64.5 84t-23.5 105zM791 395q-95 0 -162 -67t-67 -162t67 -162t162 -67t162 67t67 162t-67 162t-162 67zM723 54q0 -9 -10 -9h-46q-9 0 -9 9v98q0 9 9 9h46q10 0 10 -9v-98zM925 54q0 -9 -9 -9h-47q-9 0 -9 9v167q0 10 9 10h47q9 0 9 -10v-167zM824 54
q0 -9 -10 -9h-46q-9 0 -9 9v239q0 10 9 10h46q10 0 10 -10v-239zM824 54z" />
    <glyph glyph-name="xd_element" unicode="&#xe628;" 
d="M216 -57l-207 359l207 360h415l208 -360l-208 -359h-415zM744 511l-92 158l92 158h182l91 -158l-91 -158h-182z" />
    <glyph glyph-name="xd_idPolice" unicode="&#xe629;" 
d="M827 582q0 22 -17.5 38t-40.5 16h-559q-22 0 -38 -16t-16 -38v-370q0 -22 16 -38.5t38 -16.5h295q-17 38 -17 81v9h-1q-14 -13 -47 -13h-174q-49 3 -51 52q0 12 6 24q30 61 95 79q-23 11 -37 33t-14 48q0 38 27.5 65t66 27t66 -27t27.5 -65q0 -26 -14.5 -48t-37.5 -33
q67 -19 93 -76h1q2 -5 5 -11q25 71 92 108l-1 2h-72q-6 0 -10.5 4.5t-4.5 10.5t4.5 10.5t10.5 4.5h103q9 0 13 -12v0q1 -1 1 -2q25 7 54 7q82 0 138 -50v197v0zM358 365q-36 0 -65.5 -18t-45.5 -49q-3 -7 -2 -11q1 -28 22 -29h174q6 0 15.5 3.5t13.5 9.5q6 8 -2 26
q-12 31 -42.5 49.5t-67.5 18.5zM358.5 408q26.5 0 45 18t18.5 44t-18.5 44.5t-45 18.5t-45.5 -18.5t-19 -44.5t19 -44t45.5 -18zM689 412q-73 0 -126 -51t-53 -122.5t53 -122.5t126 -51t124.5 50.5t51.5 122.5t-51.5 123t-124.5 51zM668 137q-4 -5 -10 -5t-10 5l-66 64
q-4 4 -4 10t4 11q11 10 21 0l55 -55l119 113q11 10 21 -0.5t0 -20.5zM503 496q0 6 4 11t10 5h210q6 0 10.5 -5t4.5 -11t-4.5 -10.5t-10.5 -4.5h-210q-6 0 -10 4.5t-4 10.5zM503 496zM1017 384q0 -103 -40 -197t-108 -162t-162 -108t-197 -40t-197 40t-162 108t-108.5 162
t-40.5 197t40.5 197t108.5 162t162 108t197 40t197 -40t162 -108t108 -162t40 -197z" />
    <glyph glyph-name="xd_info" unicode="&#xe62a;" 
d="M322 293l33 49v-49h-33zM788 200h-525q-11 0 -18.5 8t-7.5 19v209h577v-209q0 -11 -7.5 -19t-18.5 -8zM399 293h-18v90h-22l-62 -90v-23h58v-29h26v29h18v23zM761 292q0 6 -3.5 10t-9.5 4h-105q-5 0 -9 -4t-4 -10v-26q0 -5 4 -9t9 -4h105q6 0 9.5 4t3.5 9v26v0zM236 489
v79h1q0 10 7.5 18t18.5 8h525q10 0 18 -8t8 -18v-79h-578zM512 -123q-103 0 -197 40t-162 108t-108 162t-40 197t40 197t108 162t162 108t197 40t197 -40t162 -108t108 -162t40 -197t-40 -197t-108 -162t-162 -108t-197 -40zM866 568q0 32 -23 55t-55 23h-525q-33 0 -56 -23
t-23 -55v-341q0 -33 23 -56t56 -23h525q32 0 55 23t23 56v341v0z" />
    <glyph glyph-name="xd_info1" unicode="&#xe62b;" 
d="M236 489v79h1q0 10 7.5 18t18.5 8h525q10 0 18 -8t8 -18v-79h-578zM788 200h-525q-11 0 -18.5 8t-7.5 19v209h577v-209q0 -11 -7.5 -19t-18.5 -8zM389 347q0 13 -10 24q-12 12 -32 12q-12 0 -21.5 -4t-15 -12t-7.5 -21l25 -4q1 9 6 14t12 5t11 -4t4 -12t-5.5 -13
t-16.5 -5l-3 -22q7 2 12 2q8 0 13.5 -6t5.5 -16q0 -11 -5.5 -17.5t-14.5 -6.5q-8 0 -13.5 5.5t-6.5 15.5l-26 -3q2 -18 14.5 -29t31.5 -11q21 0 34.5 13t13.5 32q0 12 -7.5 21.5t-19.5 11.5q21 11 21 30zM761 292q0 6 -3.5 10t-9.5 4h-105q-5 0 -9 -4t-4 -10v-26v0
q0 -5 4 -9t9 -4v0h105q6 0 9.5 4t3.5 9v26zM512 -123q-103 0 -197 40t-162 108t-108 162t-40 197t40 197t108 162t162 108t197 40t197 -40t162 -108t108 -162t40 -197t-40 -197t-108 -162t-162 -108t-197 -40zM866 568q0 32 -23 55t-55 23h-525q-33 0 -56 -23t-23 -55v-341
q0 -33 23 -56t56 -23h525q32 0 55 23t23 56v341z" />
    <glyph glyph-name="xd_list" unicode="&#xe62c;" horiz-adv-x="1025" 
d="M475 583h275v-65h-275v65zM475 483h275v-65h-275v65zM510 698q11 0 20.5 12t9.5 23t-9.5 20.5t-20.5 9.5q-12 0 -21 -8t-9 -22t9 -24.5t21 -10.5zM270 583h160v-160h-160v160zM1 895v-1023h1023v1023h-1023zM360 773q0 4 3 7t7 3h280q4 0 7 -3t3 -7v-85q0 -4 -3 -7t-7 -3
h-280q-10 0 -10 15v80zM865 59q0 -30 -22.5 -52.5t-52.5 -22.5h-555q-33 0 -54 22t-21 53v609q0 31 21 53t54 22h85v-70q0 -7 6.5 -13.5t13.5 -6.5h340q7 0 13.5 6.5t6.5 13.5v70h85q32 0 54 -21.5t26 -53.5v-609zM270 84h485v60h-485v-60zM270 304h485v65h-485v-65z
M270 194h485v60h-485v-60z" />
    <glyph glyph-name="xd_persent" unicode="&#xe62d;" horiz-adv-x="1025" 
d="M488 554h-133v0q-24 0 -40.5 -18.5t-16.5 -44.5v-215q0 -25 16.5 -43.5t40.5 -18.5h133q24 0 40.5 18.5t16.5 43.5v215q0 26 -16.5 44.5t-40.5 18.5zM475 421v-20v0.5v0.5v-2v-92q0 -11 -7.5 -19t-17.5 -8h-57q-10 0 -17.5 8t-7.5 19v92q0 11 7.5 19t17.5 8
q-10 0 -17.5 -7.5t-7.5 -18.5v59q0 11 7.5 18.5t17.5 7.5h57q10 0 17.5 -7.5t7.5 -18.5v-39zM474 408zM1 896v-1024h1024v1024h-1024zM913 433v-232q0 -22 -13 -40t-34 -23l1 -1q-125 -23 -327 -23h-41q-181 0 -305 19h1q-13 1 -26 3v1q-24 4 -40 22.5t-16 41.5v365
q0 24 16 42.5t40 22.5q9 2 26 4l-1 -1q125 20 305 20h41q200 0 327 -23l-1 -1q21 -5 34 -23t13 -41v-133zM755 554h-133v0q-24 0 -40.5 -18.5t-16.5 -44.5v-215q0 -25 17 -43.5t40 -18.5h133q24 0 40.5 18t16.5 44v215q0 26 -16.5 44.5t-40.5 18.5zM742 421v-20
q0 11 -7.5 18.5t-17.5 7.5q10 0 17.5 -8t7.5 -19v-92q0 -11 -7.5 -19t-17.5 -8h-57q-10 0 -17 8t-7 19v92q0 11 7 19t17 8q-10 0 -17 -7.5t-7 -18.5v59q0 11 7 18.5t17 7.5h57q10 0 17.5 -7.5t7.5 -18.5v-39zM473 411q-7 16 -23 16q16 0 23 -16zM214 554h64v-340h-64v340z
" />
    <glyph glyph-name="xd_morePlatform" unicode="&#xe62e;" horiz-adv-x="1025" 
d="M704 486h55q9 0 9 9v0q0 9 -9 9v0h-55q-10 0 -9.5 -9t9.5 -9zM454.5 59q-10.5 0 -17.5 -7.5t-7 -17.5t7 -17.5t17.5 -7.5t18 7.5t7.5 17.5t-7.5 17.5t-18 7.5zM731.5 63q-11.5 0 -19.5 -8t-8 -19.5t8 -19.5t19.5 -8t19.5 8t8 19.5t-8 19.5t-19.5 8zM1 896v-1024h1024
v1024h-1024zM205 -16q-21 0 -35.5 14.5t-14.5 35.5v700q0 21 14.5 35.5t35.5 14.5h500q20 0 35 -14.5t15 -35.5v-188h-75v163h-450v-625h351v-52q0 -20 13.5 -34t33.5 -14h-423zM871 36q0 -19 -13.5 -33t-31.5 -14h-196q-18 0 -31.5 14t-13.5 33v458q0 19 13 32.5t32 13.5
h196q18 0 31.5 -13.5t13.5 -32.5v-458zM607 452h242v-364h-242v364z" />
    <glyph glyph-name="xd_rocket1" unicode="&#xe62f;" horiz-adv-x="1025" 
d="M513 613q-24 0 -40.5 -17t-16.5 -40.5t16.5 -40.5t40.5 -17t40.5 17t16.5 40.5t-16.5 40.5t-40.5 17zM742 327h-29q-29 0 -43 16.5t-14 40.5v229q0 23 -14.5 46.5t-35.5 40t-42.5 29.5t-35.5 20l-15 6q-6 -2 -15.5 -6t-34 -17.5t-43.5 -28.5t-34.5 -39.5t-15.5 -50.5
v-229q0 -2 -1 -6t-5 -14t-10 -17.5t-17 -13.5t-24 -6h-29q-1 -1 -7.5 0.5t-13.5 -6t-7 -23.5v-85q2 3 5.5 9t15.5 20.5t24.5 26t31.5 20.5t37 9h286q25 0 53.5 -21.5t44.5 -42.5l16 -21v85v0q3 29 -28 29zM513 470q-36 0 -61 25t-25 60.5t25 60.5t61 25t61 -25t25 -60.5
t-25 -60.5t-61 -25zM513 213q-23 0 -40 -15t-17 -43q0 -11 6 -26.5t14 -30.5t16.5 -28t14.5 -21l6 -8q57 81 57 114q0 25 -17.5 41.5t-39.5 16.5zM1 896v-1024h1024v1024h-1024zM513 -16q-10 14 -24 35.5t-38 68t-24 67.5q0 39 21 62.5t65 23.5q42 0 64 -23t22 -63
q0 -48 -84 -169zM799 127q-4 6 -10 15.5t-24.5 34t-35.5 43.5t-37.5 34.5t-35.5 15.5h-286q-16 0 -36.5 -15t-38.5 -36t-33.5 -42t-25 -35.5l-9.5 -14.5v171q0 20 4 32.5t13 17.5t17 6t23 1t26 3t17 7.5t9.5 8.5t4.5 7v3v229q0 32 18 61.5t42.5 48.5t51 33.5t43 21t17.5 6.5
q7 -2 18.5 -6.5t41 -20t52.5 -33.5t41.5 -48t18.5 -63v-229q0 -1 0.5 -3t3.5 -7t8.5 -8.5t17 -7t27.5 -3.5h5q14 0 21 -1t15.5 -5.5t12 -17t3.5 -33.5v-171z" />
    <glyph glyph-name="xd_netWorking" unicode="&#xe630;" horiz-adv-x="1025" 
d="M375 372h117v86h-129q2 -45 12 -86zM363 501h129v85h-117q-10 -41 -12 -85zM413 685q-15 -25 -25 -56h104v126q-15 -5 -29 -15q-28 -19 -50 -55zM413 274q22 -37 50 -56q14 -10 29 -14v125h-104q11 -30 25 -55zM393 731q-43 -21 -77 -55q-22 -21 -38 -47h64q19 60 51 102
zM633 228q43 21 77 54q21 22 38 47h-64q-19 -59 -51 -101zM331 586h-75q-17 -41 -21 -85h86q1 44 10 85zM278 329q17 -25 38 -47q34 -34 77 -54q-32 42 -51 101h-64zM321 458h-86q4 -45 21 -86h75q-9 41 -10 86zM663 458h-129v-86h117q10 42 12 86zM651 586h-117v-85h129
q-2 44 -12 85zM613 274q15 25 25 55h-104v-125q15 4 29 14q28 19 50 56zM1 896v-1024h1024v1024h-1024zM913 8h-335q-9 -18 -26.5 -29.5t-38.5 -11.5t-38.5 11.5t-26.5 29.5h-335v65h337q9 17 25 27v60q-120 14 -201.5 105t-81.5 214q0 88 43 162t117 117t161 43t161 -43
t117 -117t43 -162q0 -123 -81.5 -214t-201.5 -105v-60q16 -10 25 -27h337v-65zM613 685q-22 36 -50 55q-14 10 -29 15v-126h104q-10 31 -25 56zM705 501h86q-4 44 -21 85h-75q9 -41 10 -85zM695 372h75q17 41 21 86h-86q-1 -44 -10 -86zM748 629q-16 26 -38 47
q-34 34 -77 55q32 -42 51 -102h64z" />
    <glyph glyph-name="xd_chinaMap" unicode="&#xe631;" 
d="M702 567h-1h1v0zM764 438q-3 -3 -7 -5v0v0q-4 -13 -12 -16q4 0 7 -3t4 -6v0q3 5 8 8h1q-2 1 -3 3q-4 7 3 14q-1 3 -1 5zM889 599q-3 8 -2 13l-2 -2v-1q-5 -11 -23 -11q-4 0 -8 1v0h-1q-11 4 -11 15l-2 2q-5 0 -10 3q-2 2 -6 2t-10 -1h-2h-1q-7 1 -11 9q-1 2 -2 2
q-6 6 -10 16v1q-1 1 -2 1l-1 1l-1 1l-1 1q-3 3 -6 9q-2 5 -6 8l-6 4v2h-1h-3l-2 -1h-3q-4 1 -9 4l-2 -2v0l-3 -1l-1 -1q-4 -1 -10 -2h-3q9 -18 -3 -29v-3q-1 -5 -2 -7q0 -1 -1 -2q1 -1 1 -2l1 -1v-1l1 -1q1 -9 -14 -20q-3 -3 -4 -3l-1 -1v0q-4 -3 -8 -3q-3 0 -6 1h-1
q-2 -5 -3 -11h4h2l3 1q6 3 12 3q9 0 15 -7q2 -1 4 -3q9 -6 12 -13l1 -1q2 -8 -2 -14q-5 -6 -13 -6h-3h-1q-2 1 -5 2h-1l-2 -2l-4 -4h-2q-2 -3 -6 -4h-1h-2v0v-1q-1 -1 -1 -2v-1l-1 -1v-1q-7 -11 -18 -14h-1h-1h-1t-1 -1v0q-6 -13 -16 -13q-2 0 -8 1q-4 1 -6 2h-1q-1 0 -3 1
q8 -7 6 -15q-2 -9 -14 -12h-1q0 -1 -2 -4q-4 -9 -10 -11h-1l-1 -1h-1h-3v0q-1 -1 -2 -1l-3 -4h-4h-3h-3v0q-5 1 -9 1q-10 0 -13.5 -1.5t-14.5 -7.5q-5 -3 -9 -5l-7 -4l-3 2l-9 -5l-2 9q0 -1 -1 -1v0q-6 0 -14 5l-1 1h-1q-1 1 -3 1q-6 1 -10 4l-2 2l-1 3q-2 1 -11 1v0h-3h-1
h-7h-9q-13 0 -23 5h-4q-2 -1 -4 -1q-8 0 -12 5q-4 4 -4 10v1l-1 1l-1 2l-1 1q-1 4 -3 6q-2 3 -3 6q-5 3 -11 9q-2 2 -4 3v1h-1q-3 3 -7 3h-6h-2h-1q-19 3 -23 14q-3 9 5 19l3 6l-1 2q-1 5 -2 8t-1 7l-4 2h-2l-2 1q-7 3 -11 10q-3 3 -4 6q-2 -1 -3 -2q-4 -2 -11 -2h-1v-4
q2 -6 -1 -11q-3 -6 -11 -7l-1 -1h-1h-3q-10 0 -19 5q-2 1 -2 1.5t-1 0.5q-4 -9 -7 -14q-1 0 -1 -0.5v-0.5q0 -11 -7 -15q-3 -1 -5 -1h-1q-4 0 -11 5h-4q-1 -1 -2 -1q0 -3 -1 -7v-1v-1v-5v-5v-1v-1q-1 -12 -9 -14q-1 -2 -3 -3v-3q-1 -12 -16 -14h-1h-5v0q-17 -1 -21 -3
q-5 -4 -10 -4l-1 -2l-6 -2q-8 -4 -18 -1l-1 1h-1v1q-2 0 -3 1l-1 1q-3 -2 -8 -3l1 -2l-4 -2v-1q1 0 2 -1q5 -4 6 -13v-2v-1q-2 -6 0 -12v-1v-2q0 -3 -2 -6v0q1 -1 1 -2q8 -5 6 -19v-1q6 -3 9 -8q9 0 12 -8q2 -3 2 -10v-1v-1v-1v0q4 -3 6 -7l1 -1v-1q3 -6 0 -12q-2 -3 -4 -5
v-2q2 -4 2 -9q0 -3 1 -4l1 -4l-2 -3q-3 -8 -11 -10v-5q0 -1 -1 -2v0q1 -1 4 -2v-0.5v-0.5q10 -5 17 -16q5 2 10 1q10 -2 13 -10l1 -2v0q0 -1 1 -1v0q9 -7 12 -14q4 0 7 -2q4 -3 6 -10v-1v-1h1h1q5 0 8 -3q2 -3 3 -6l4 -2l3 -2v-1q1 -1 3 -1v-1l1 1l3 -1q6 -1 10 -4h3h7
q5 1 7 1q6 0 10 -4q5 3 10 4q12 2 17 -5q1 -1 3 -1h1v0q15 -1 17 -14q6 -4 6 -11q9 1 11 2q6 8 16 9q5 7 14 9q4 1 8 1v0q8 0 17 -6q5 8 13 8q14 -1 17 -16v-1q8 -3 8 -11q1 -15 0 -24l-1 -3v-1v-4l-4 -4l-1 -1q-2 -5 -7 -7l-2 -1q-1 -2 -3 -3v-1h5v0q2 1 5 1q4 0 8 -3
q6 -5 4 -12q0 -3 -3 -6q5 -2 7 -6q4 -6 1 -13q3 -1 4 -2q3 -3 4 -6q4 2 7 2q0 4 3 8q5 6 13 6q1 0 2 -1h2q5 4 10 4h3q4 2 7 2q2 0 4 -0.5t3 -1.5q1 1 3 1q2 1 4 1v0h3q2 6 8 8q3 1 6 1v0q7 0 13 -6l1 -1q1 0 2 -1q3 1 5 1q7 0 11 -5q5 -6 1 -16q3 -1 9 -2h1v1l14 5l4 -5
l1 -1h1l3 1l1 -2h1h4q7 0 10 -2h3v0h3q2 1 4 1l1 1h2h1h1l4 3l4 -2v0l1 1q4 3 8 3v0h1q3 3 7 4q1 1 2 3l1 1v3q-1 8 7 11q2 1 4 1v0q7 0 12 -8h1h1v0v0q4 5 10 7h4v0l4 2h1v0v0h2h3v0h1q-1 6 3 10t9 3l1 1l2 1l3 1v0h1v0v3v1q-3 7 3 13q3 3 8 4l1 2l2 1l1 1h1l1 4l4 1
q1 3 2 5q-1 3 -1 6q-3 4 -3 10h1q1 8 8 10q2 1 4 1l2 2q-1 5 1 9l1 3l2 2h1v1q0 3 1 6q2 4 5 6q-3 4 -2 9v3h-1h-1h-3h-3v0h-2q-6 0 -9 4q-4 6 -1 13q4 8 13 8h1q0 1 2 2l-1 1q-9 2 -11 8q-1 5 1 10q-2 4 -2 10v0q0 1 -1 2l-3 3l-1 1v2l-1 3q-3 7 -3 8q-1 1 -9 3v0
q-8 3 -10 8q-2 4 1 12q0 1 1 3v0v1q3 7 6 10v2q0 4 2 7h-5q-7 0 -11 3q-6 4 -6 11q-5 -1 -9 1q-7 2 -11 12q-1 1 -1 2v0l-1 1q-3 10 4 20q5 5 12 5h2h1h1q1 0 3 1l2 4v1l1 2v0q4 6 10 9q1 2 5 9v0q5 11 15 11q2 1 4 1h2q7 -1 14 -11l1 -3v-2q1 -3 0 -5q6 3 11 5v0l1 1
q4 10 11 16q2 2 5 4t4 8v0q5 15 16 16v0q3 0 5 -1q3 5 11 7v0q2 4 5 7q0 6 4 10q5 5 10 5v0h2q-1 8 -5 17q-5 6 -4 12t6 9l1 1q1 4 5 6l3 2h4h5v0v0q1 14 1 18q-1 2 -2 3zM713 319q5 -12 5 -25.5t-5 -26.5q-5 -12 -14.5 -21t-21.5 -14q-12 -6 -26 -6t-26 6q-12 5 -21.5 14
t-14.5 21q-5 13 -5 26.5t5 25.5t14.5 21.5t21.5 14.5t26 5t26 -5t21.5 -14.5t14.5 -21.5zM709 572l-1 -1h1v1zM651 349q-23 0 -39.5 -16.5t-16.5 -39.5t16.5 -39.5t39.5 -16.5t39.5 16.5t16.5 39.5t-16.5 39.5t-39.5 16.5zM651 256q-15 0 -26 11t-11 26t11 26t26 11t26 -11
t11 -26t-11 -26t-26 -11zM0 896v-1024h1024v1024h-1024zM911 576q0 -1 -1 -2v-1v-1v-1q-3 -14 -18 -14h-2q0 -1 -1 -1q11 -24 5 -38l-2 -4q-1 -4 -5 -7q-3 -2 -6 -2v0h-3q-1 -2 -3 -4h-1v-1h-1l-1 -1q-2 -4 -5 -6q0 -7 -5.5 -12t-13.5 -5q-3 0 -7 1q-3 -9 -10 -15h-1v-1
l-2 -1v-1q-2 -1 -3 -3v0l-5 -8l-3 -8l-3 1q-3 -2 -7 -3q-5 -2 -13 -10v0q-3 -7 -11 -12v0h-1l-1 -1v0q3 -2 5 -2t4 1v0h5q8 0 12 -6t0 -12q0 -6 -4 -11l-4 -3h-4q-1 1 -2 1q-3 -3 -6 -4l-1 -1q-1 -3 -3 -6q-2 -5 -7 -8q-1 -2 -3 -4v0q-2 -2 -3 -4q7 -2 11 -6t8 -17l1 -1
q5 -6 6 -10q4 -2 7 -5q0 -1 2 -2h1l1 -1l1 -1q5 -6 5 -11h4l-2 -9q2 -5 0 -10l-2 -4q4 -2 6 -7q1 -3 0 -6q4 -8 0 -16q0 -4 -2 -7v0v-2l1 -2l-1 -2q-3 -10 -11 -12q-1 -1 -1 -2q1 -5 0 -8q-1 -6 -7 -9q0 -5 -3 -8q0 -2 -1 -4q1 -4 -1 -8q2 -5 -1 -10q-2 -3 -6 -4
q-1 -2 -2 -2q-1 -4 -5 -6q-2 -5 -6 -7q-1 -2 -2 -3v0l-1 -1h-1v-0.5v-0.5v-1v0q-4 -11 -14 -14v0l-2 -2v0l-2 -3q-8 -11 -20 -12l-2 -2q-4 -2 -9 -1q-5 -5 -13 -6q-1 0 -3 -1h-3h-1v0h-1h-4q0 -1 -1 -1q-1 -4 -4 -7v0q-3 -2 -8 -2q-3 -3 -9 -4q-6 -4 -12 -4h-2q-3 -1 -7 -1
v-1q1 -2 1 -4q1 -14 -15 -17h-4q-8 0 -12 6q-1 3 -1 6v2l-2 4l-2 -2l-6 7q-1 0 -3 -1q-3 -1 -7 -1q-5 0 -9 2q-15 3 -22 11q-3 5 -4 12q-3 0 -6 2v-5l-9 1l-2 -3l-6 1v-1l-3 -2q-3 -2 -7 -2q-3 0 -5 2q-4 -1 -8 1v0q-3 0 -6 1q-3 -2 -7 -3v-4v-1v-3v0v-2q2 -9 -5 -13
q-3 -1 -6 -1v0q-4 0 -7 2q-5 0 -8 3q-2 1 -3 4q-2 -1 -4 -1q-11 0 -15 10q-10 1 -13 8q-3 6 1 13q-4 3 -6 7q-1 3 -2 9q-4 -3 -9 -3q-6 0 -10 4q-5 6 -1 14q-1 2 -1 4q-1 7 4 11q1 5 6 9q4 6 9 8q0 3 2 6q1 5 0 12q-3 2 -5 5q-2 -1 -4.5 -2t-4.5 -1q-5 0 -10 3v0l-1 1
q-6 5 -9 5h-1v-1h-2h-1h-1q-5 -7 -13 -9h-1h-1v0q-1 0 -1 -1h-1v-1q-6 -7 -26 -9h-1h-2h-3q-8 0 -13 4q-4 4 -4 10v1.5v1.5q-3 3 -5 8q-8 1 -14 6q-1 0 -2 -1v0q-2 -11 -12 -12h-1q-8 -1 -13 4q-2 3 -2 8h-7q-11 0 -15 3q-3 -1 -5 -1q-3 0 -5 1h-2q-8 1 -11 10q-5 1 -8 5
q-1 2 -1 3q-6 2 -9 5q-4 4 -5 8q-8 2 -11 13v0q-1 2 -5 4l-1 1q-4 4 -6 7q-4 -2 -7 -2h-1q-7 0 -11 6l-1 1v0q-7 11 -13 15h-1l-1 1q-15 10 -12 23v2v6v2q-1 4 -1 7q0 6 5 9q3 3 6 4q-1 1 -1 4q-2 7 -1 10l2 4q-5 6 -4 15q-7 2 -10 9h-1v0q-8 3 -11 9t-1 13v1q-2 2 -3 4h-1
v0q-11 4 -10 14q0 8 8 12v2.5v3.5q-4 1 -7 4q-7 7 -5 15l2 4v1v3q2 4 5 7l2 4q4 6 14 8h1h3q3 4 7 4q5 1 8 -1h2l3 -1q2 0 4 -2q3 4 8 5q2 1 4 1t4 -1q8 5 31 6v0h2q2 8 6 12h1l1 1l4 4v1q-1 8 0 13q1 1 1 2q-4 5 -3 12l1 1l1 2v1q4 5 10 5h3h1h2l1 1q8 2 16 0l2 4q3 4 8 14
v1l1 1v1q8 8 14 8q4 0 9 -3q2 -1 3 -2h1l2 -1q3 -2 5 -2q0 10 6 16q5 6 14 6v0q0 3 2 6q4 4 11 5h2h1q3 0 5 -2q13 0 14 -13v-1v-1v-2v0q0 -1 1 -1l2 -1l1 -3v0q6 -1 10 -4q10 -4 10 -15q1 -3 1 -4l1 -1v-2v-1q0 -1 1 -5q4 -12 -5 -25q2 -1 3 -1h7q13 0 22 -8l6 -6
q2 -2 4 -3q8 -1 11 -6q2 -4 1 -8q2 -4 4 -9q3 -3 5 -7h2q5 0 8 -1l1 -1v0q6 -3 15 -3h7h9v0h5q20 -1 27 -10q6 0 11 -5q3 -1 4 -1t5 1l12 4l1 -6l1 0.5l1 0.5q20 12 38 12h10h2q4 3 10 4v0q5 10 10 13q-4 8 0 18v1q6 13 16 13q4 0 9 -2q2 -1 3 -2q3 0 6 -1h1v0q0 1 1 3
q4 10 16 10h3v0l2 3v1q3 9 7 12q3 2 7 3q1 1 2 3q2 1 5 2q-4 0 -9 2l-1 -1v0l-1 -1q-3 -3 -8 -3h-3q-8 2 -13 13l-1 3v2q0 4 3 7v2v0q5 22 11 30l1 1l3 2q2 1 5 1v0q3 0 6 -2q1 1 2 1q2 0 4 -1v1q3 2 4 2q-2 7 1 15v1q1 0 1 3q2 9 5 13q-6 4 -6 13v1l1 2v1q5 10 9.5 14
t13.5 5q5 1 7 1q7 5 14 5q5 0 10 -3v0h6v0q12 0 19 -6q3 -3 4 -7q5 -5 9 -13q1 -2 1 -3q6 -3 10 -10l1 -1v-1q2 -6 4 -8h1l4 -6q4 1 7 1q9 0 17 -5h1q3 1 5.5 1t5.5 -1q5 -3 6 -10q3 -4 4 -8q2 1 4 1q6 12 16 18h1l1 1h1q3 0 4 2v0q5 6 11 6q3 0 5 -2q9 -5 4 -17v-1l-1 -1
q2 -6 0 -12q-1 -3 -1 -4l1 -3l2 -4v-1v0q2 -8 0 -26z" />
    <glyph glyph-name="xd_bigBank" unicode="&#xe632;" 
d="M0 896v-1024h1024v1024h-1024zM912 48h-800v42h56v42h35v412h-48v48l331 128h52l331 -128v-48h-48v-412h35v-42h56v-42zM605 530l-93 -121l-93 121h-54l120 -159h-74v-37h79v-43h-79v-38h79v-94h44v94h79v38h-79v43h79v37h-74l120 159h-54z" />
    <glyph glyph-name="xd_twoCard" unicode="&#xe633;" 
d="M642 255h96v-50h-96v50zM516 255h96v-50h-96v50zM386 255h95v-50h-95v50zM765 255h96v-50h-96v50zM693 474h168v-90h-168v90zM0 896v-1024h1024v1024h-1024zM283 221h-84v-1q-35 2 -59 27q-28 27 -28 66v235q0 39 28 66q28 28 65 28h403q39 0 66 -28q22 -22 26 -53h-61
q-2 7 -7 12q-9 9 -24 9h-403q-13 0 -23 -9.5t-10 -23.5v-32h107v-102h-107v-102q0 -14 10 -23q4 -5 12 -8v0h89v-61zM912 197q0 -29 -20.5 -50t-50.5 -21h-449q-29 0 -50 21t-21 50v262q0 30 21 51t50 21h449q30 0 50.5 -21t20.5 -50v-263z" />
    <glyph glyph-name="xd_leader" unicode="&#xe634;" 
d="M512 -123q137 0 257.5 59t202.5 163q-11 11 -25.5 19t-37.5 16.5t-32 13.5q-15 6 -69 32t-81 38q-7 2 -42 13q-14 10 -41 75q-4 0 -8.5 1t-9.5 1.5t-8 1.5q0 18 11.5 33.5t14.5 24.5q2 9 3.5 34t6.5 36q4 7 15.5 13.5t14.5 12.5q9 14 14 43q9 53 -3 81l-5 10t-4 10t-2 12
q-1 12 2 55.5t3 44.5q1 27 0 38t-8 39q-10 32 -25 42l-31 6l-19 19q-27 19 -56 25t-58.5 0t-46.5 -12t-41 -17q-113 -40 -76 -238q3 -14 -4 -29.5t-7 -20.5q0 -1 1.5 -21t2.5 -30t4 -26.5t8 -26.5t13 -15q1 -1 6 -2.5t9.5 -2.5l4.5 -1q1 -16 3.5 -45.5t4.5 -41.5
q2 -8 12.5 -21t13.5 -28l-20 -5q-27 -65 -41 -75q-13 -4 -42 -13q-27 -12 -80.5 -37.5t-69.5 -32.5q-9 -5 -31.5 -13.5t-37.5 -16.5t-26 -19q82 -104 202.5 -163t257.5 -59z" />
    <glyph glyph-name="xd_wenhaoBG" unicode="&#xe635;" 
d="M512 883q-102 0 -194 -39.5t-159 -106.5t-106.5 -159t-39.5 -194t39.5 -194t106.5 -159t159 -106.5t194 -39.5t194 39.5t159 106.5t106.5 159t39.5 194t-39.5 194t-106.5 159t-159 106.5t-194 39.5zM600 46.5q-37 -36.5 -88.5 -36.5t-88.5 36.5t-37 88.5t37 88.5
t88.5 36.5t88.5 -36.5t37 -88.5t-37 -88.5zM651 362q-33 -16 -39.5 -30t-6.5 -46h-195v32q0 72 16.5 102t51.5 45l36 15q41 18 41 51q0 19 -13.5 32t-32.5 13q-50 0 -51 -71h-182q0 110 68 181.5t170 71.5q97 0 165.5 -65.5t68.5 -161.5q0 -120 -97 -169z" />
    <glyph glyph-name="xd_download" unicode="&#xe636;" 
d="M917 450h-50v-173h-710v173h-50l-58 -243h926zM215 561l297 -252l297 252h-594z" />
    <glyph glyph-name="xd_search" unicode="&#xe637;" 
d="M999 -31l-71 -71q-10 -10 -24 -10t-23 10l-142 142q-10 9 -10 23t10 24l4 4l-67 66q-1 1 -4 6q-110 -89 -252 -89q-110 0 -202.5 54t-146.5 146.5t-54 202t54 202.5t146.5 147t202 54t202.5 -54t147 -147t54 -202q0 -142 -89 -253q5 -3 5 -4l67 -66l4 4q10 9 23.5 9
t23.5 -9l142 -142q10 -10 10 -24t-10 -23zM419.5 725q-102.5 0 -175 -72.5t-72.5 -175.5t72.5 -175.5t175 -72.5t175.5 72.5t73 175.5t-73 175.5t-175.5 72.5z" />
    <glyph glyph-name="xd_top" unicode="&#xe638;" 
d="M1 129h1022l-511 510z" />
    <glyph glyph-name="xd_down" unicode="&#xe639;" 
d="M1023 639h-1022l511 -510z" />
    <glyph glyph-name="xd_left" unicode="&#xe63a;" 
d="M767 -127v1022l-510 -511z" />
    <glyph glyph-name="xd_right" unicode="&#xe63b;" 
d="M257 895v-1022l510 511z" />
    <glyph glyph-name="xd_luckFace" unicode="&#xe63c;" 
d="M193 -103q-57 0 -97.5 40.5t-40.5 97t40.5 97t97.5 40.5t97.5 -40.5t40.5 -97t-40.5 -97t-97.5 -40.5zM193 121q-36 0 -61.5 -25.5t-25.5 -61t25.5 -61t61.5 -25.5t61.5 25.5t25.5 61t-25.5 61t-61.5 25.5zM830 -103q-57 0 -97.5 40.5t-40.5 97t40.5 97t97.5 40.5
t97.5 -40.5t40.5 -97t-40.5 -97t-97.5 -40.5zM830 121q-36 0 -61.5 -25.5t-25.5 -61t25.5 -61t61.5 -25.5t61.5 25.5t25.5 61t-25.5 61t-61.5 25.5zM776 460q-10 0 -17 6.5t-8 16.5q-3 25 -14.5 51t-28 26t-27.5 -26t-13 -50q-1 -11 -9 -17.5t-18.5 -5.5t-17.5 9t-6 18
q3 27 11.5 53t29.5 48t50 22t50.5 -22t30.5 -47.5t12 -52.5q2 -11 -5 -19t-17 -9q-1 -1 -3 -1v0zM429 460q-9 0 -16.5 6.5t-8.5 16.5q-3 25 -14.5 51t-28 26t-27 -26t-13.5 -50q-1 -11 -9 -17.5t-18.5 -5.5t-17.5 9t-6 18q3 27 11.5 53t29.5 48t50 22t50.5 -22t31 -47.5
t12.5 -52.5q1 -11 -5.5 -19t-17.5 -9q-1 -1 -3 -1v0zM692 34q0 8 1 18q-86 -43 -182 -43t-181 43q1 -10 1 -18q0 -18 -5 -37q88 -39 185 -39t186 39q-5 19 -5 37zM186 172q-80 107 -80 241q0 109 54.5 202.5t147.5 147.5t203 54t203.5 -54t148 -147.5t54.5 -202.5
q0 -134 -80 -241q28 -1 53 -13q78 115 78 254q0 92 -36.5 176.5t-97.5 145.5t-145.5 97t-177 36t-177 -36t-146 -97t-97.5 -145.5t-36 -176.5q0 -139 78 -254q25 12 53 13zM388 299q-4 11 -14.5 15.5t-21.5 1.5q-11 -4 -16 -14.5t-2 -21.5q10 -29 36 -56q53 -53 137 -53h14
q82 2 133 53q26 27 36 56q3 11 -2 21.5t-16 14.5q-24 8 -36 -17q-1 -3 -4 -8t-12.5 -16.5t-21.5 -20.5t-33 -16.5t-46 -9.5h-2q-27 0 -50.5 7.5t-37 16.5t-24 21t-13.5 17.5t-4 9.5v-1z" />
    <glyph glyph-name="xd_moneyBox" unicode="&#xe63d;" 
d="M512 -111q-101 0 -193 39q-89 37 -157.5 105.5t-105.5 157.5q-39 92 -39 193t39 193q37 89 105.5 157.5t157.5 105.5q92 39 193 39t193 -39q89 -37 157.5 -105.5t105.5 -157.5q39 -92 39 -193t-39 -193q-37 -89 -105.5 -157.5t-157.5 -105.5q-92 -39 -193 -39zM512 859
q-196 0 -335.5 -139.5t-139.5 -335.5t139.5 -335.5t335.5 -139.5t335.5 139.5t139.5 335.5t-139.5 335.5t-335.5 139.5zM761 307q-20 83 -62 158q-43 78 -96 127q1 12 4.5 24t15.5 27.5t30 19.5l4 1l2 3q10 11 5 22q-7 15 -38 15h-6h-2l-1 -1q-29 -10 -66 -10q-48 0 -83 23
l-2 1l-3 1q-15 2 -34 2q-67 0 -68 -39q-1 -12 4 -25t19 -18q11 -9 19 -17q15 -15 19 -23l-2 -1q-7 -6 -18 -15.5t-38 -42t-48 -70.5q-42 -75 -59 -162q-21 -108 -2 -228v0q1 -6 3.5 -11.5t14.5 -12.5t30 -7h428h1q12 0 22 6q18 12 20 37q12 112 -13 216zM599 272v-28h-69
v-39h69v-29h-69v-57h-35v57h-71v29h71v39h-71v28h61l-75 127h40q52 -95 63 -120h1q4 10 21 42l42 78h38l-75 -127h59z" />
    <glyph glyph-name="xd_choise" unicode="&#xe63e;" 
d="M24 -104h923q22 0 37.5 15.5t15.5 37.5v922q0 14 -250 -230.5t-494.5 -494.5t-231.5 -250zM948 342l-311 -318q-5 -5 -12 -5t-12 5l-159 156q-5 5 -5.5 12t5.5 12l18 18q5 5 12 5t12 -5l129 -126l281 288q7 7 17 7t17 -6l9 -9q6 -6 6 -16.5t-7 -17.5z" />
    <glyph glyph-name="xd_cut" unicode="&#xe63f;" 
d="M0 438h1024v-108h-1024v108z" />
    <glyph glyph-name="xd_add" unicode="&#xe640;" 
d="M1022 438h-456v456h-108v-456h-456v-108h456v-456h108v456h456v108z" />
    <glyph glyph-name="xd_export" unicode="&#xe641;" 
d="M157 727h642v161h-793v-1008h793v161h-642v686zM307 295h492v-94l219 170l-218 172l-1 -94h-394z" />
    <glyph glyph-name="xd_gou" unicode="&#xe642;" 
d="M512 888q-137 0 -253 -67.5t-183.5 -183.5t-67.5 -253t67.5 -253t183.5 -183.5t253 -67.5t253 67.5t183.5 183.5t67.5 253t-67.5 253t-183.5 183.5t-253 67.5zM511 -29q-171 0 -292.5 121.5t-121.5 292.5t121.5 292.5t292.5 121.5t292.5 -121.5t121.5 -292.5
t-121.5 -292.5t-292.5 -121.5zM424 165l-219 211l62 59l157 -152l333 320l62 -59z" />
    <glyph glyph-name="xd_cha" unicode="&#xe643;" 
d="M512 888q-137 0 -253 -67.5t-183.5 -183.5t-67.5 -253t67.5 -253t183.5 -183.5t253 -67.5t253 67.5t183.5 183.5t67.5 253t-67.5 253t-183.5 183.5t-253 67.5zM511 -29q-171 0 -292.5 121.5t-121.5 292.5t121.5 292.5t292.5 121.5t292.5 -121.5t121.5 -292.5
t-121.5 -292.5t-292.5 -121.5zM737 548l-61 61l-164 -164l-164 164l-61 -61l164 -164l-164 -164l61 -61l164 164l164 -164l61 61l-164 164z" />
    <glyph glyph-name="xd_arrowTop" unicode="&#xe644;" 
d="M1019 241l-507 355v0v0v0v0l-507 -355l48 -69l459 322l459 -322z" />
    <glyph glyph-name="xd_arrowLeft" unicode="&#xe645;" 
d="M655 891l-355 -507v0v0v0v0l355 -507l69 48l-322 459l322 459z" />
    <glyph glyph-name="xd_arrowRight" unicode="&#xe646;" 
d="M369 -123l355 507v0v0v0v0l-355 507l-69 -48l322 -459l-322 -459z" />
    <glyph glyph-name="xd_arrowDown" unicode="&#xe647;" 
d="M5 527l507 -355v0v0v0v0l507 355l-48 69l-459 -322l-459 322z" />
    <glyph glyph-name="xd_gou1" unicode="&#xe648;" 
d="M367 21l-363 349l102 98l261 -251l551 530l102 -98z" />
    <glyph glyph-name="xd_cha1" unicode="&#xe649;" 
d="M1014 -27l-94 -92l-417 399l-402 -399l-91 92l414 411l-414 411l91 92l402 -399l417 399l94 -92l-428 -411l428 -411v0z" />
    <glyph glyph-name="xd_customerService" unicode="&#xe64a;" 
d="M938.5 232q-33.5 0 -57 22.5t-23.5 53.5v130q0 39 34 62q-35 118 -140 193.5t-240 75.5t-240 -75.5t-140 -193.5q34 -23 34 -62v-130q0 -23 -13.5 -42t-35.5 -28q38 -79 108 -137t159 -84q10 23 40 37.5t69 14.5q47 0 80 -20.5t33 -49.5t-33 -49.5t-80 -20.5
q-39 0 -69 14.5t-39 37.5q-104 27 -184.5 93.5t-122.5 158.5q-31 2 -52 24t-21 51v130q0 24 14.5 43.5t37.5 27.5q39 144 165.5 237t289.5 93t289.5 -93t165.5 -237q23 -8 37.5 -27.5t14.5 -43.5v-130q0 -31 -23.5 -53.5t-57 -22.5zM305 471.5q0 21.5 16.5 37t40 15.5
t40 -15.5t16.5 -37t-16.5 -37t-40 -15.5t-40 15.5t-16.5 37zM343 238v41h10q28 -33 70 -51.5t89 -18.5t88.5 18.5t70.5 51.5h10v-41q-71 -64 -169 -64t-169 64zM606 471.5q0 21.5 16.5 37t40 15.5t40 -15.5t16.5 -37t-16.5 -37t-40 -15.5t-40 15.5t-16.5 37z" />
  </font>
</defs>
</svg>
